<svg xmlns="http://www.w3.org/2000/svg" width="843" height="128" viewBox="0 0 843 128">
  <g transform="translate(10, 20)">
    <!-- Dias da semana -->
    <text x="-9" y="15" text-anchor="end" style="font-size: 9px; fill: #586069;">Dom</text>
    <text x="-9" y="33" text-anchor="end" style="font-size: 9px; fill: #586069;">Seg</text>
    <text x="-9" y="51" text-anchor="end" style="font-size: 9px; fill: #586069;">Ter</text>
    <text x="-9" y="69" text-anchor="end" style="font-size: 9px; fill: #586069;">Qua</text>
    <text x="-9" y="87" text-anchor="end" style="font-size: 9px; fill: #586069;">Qui</text>
    <text x="-9" y="105" text-anchor="end" style="font-size: 9px; fill: #586069;">Sex</text>
    <text x="-9" y="123" text-anchor="end" style="font-size: 9px; fill: #586069;">Sáb</text>
    
    <!-- Grade de contribuições -->
    <g transform="translate(0, 0)">
      <!-- Cada retângulo representa um dia -->
      <rect x="0" y="0" width="11" height="11" rx="2" ry="2" fill="#ebedf0" />
      <rect x="13" y="0" width="11" height="11" rx="2" ry="2" fill="#ebedf0" />
      <rect x="26" y="0" width="11" height="11" rx="2" ry="2" fill="#9be9a8" />
      <rect x="39" y="0" width="11" height="11" rx="2" ry="2" fill="#ebedf0" />
      <rect x="52" y="0" width="11" height="11" rx="2" ry="2" fill="#ebedf0" />
      <rect x="65" y="0" width="11" height="11" rx="2" ry="2" fill="#9be9a8" />
      <rect x="78" y="0" width="11" height="11" rx="2" ry="2" fill="#ebedf0" />
      <rect x="91" y="0" width="11" height="11" rx="2" ry="2" fill="#ebedf0" />
      <rect x="104" y="0" width="11" height="11" rx="2" ry="2" fill="#ebedf0" />
      <rect x="117" y="0" width="11" height="11" rx="2" ry="2" fill="#ebedf0" />
      <rect x="130" y="0" width="11" height="11" rx="2" ry="2" fill="#ebedf0" />
      <rect x="143" y="0" width="11" height="11" rx="2" ry="2" fill="#ebedf0" />
      <rect x="156" y="0" width="11" height="11" rx="2" ry="2" fill="#ebedf0" />
      <rect x="169" y="0" width="11" height="11" rx="2" ry="2" fill="#ebedf0" />
      <rect x="182" y="0" width="11" height="11" rx="2" ry="2" fill="#ebedf0" />
      <rect x="195" y="0" width="11" height="11" rx="2" ry="2" fill="#ebedf0" />
      <rect x="208" y="0" width="11" height="11" rx="2" ry="2" fill="#ebedf0" />
      <rect x="221" y="0" width="11" height="11" rx="2" ry="2" fill="#ebedf0" />
      <rect x="234" y="0" width="11" height="11" rx="2" ry="2" fill="#ebedf0" />
      <rect x="247" y="0" width="11" height="11" rx="2" ry="2" fill="#ebedf0" />
      <rect x="260" y="0" width="11" height="11" rx="2" ry="2" fill="#ebedf0" />
      <rect x="273" y="0" width="11" height="11" rx="2" ry="2" fill="#ebedf0" />
      <rect x="286" y="0" width="11" height="11" rx="2" ry="2" fill="#ebedf0" />
      <rect x="299" y="0" width="11" height="11" rx="2" ry="2" fill="#ebedf0" />
      <rect x="312" y="0" width="11" height="11" rx="2" ry="2" fill="#ebedf0" />
      <rect x="325" y="0" width="11" height="11" rx="2" ry="2" fill="#ebedf0" />
      <rect x="338" y="0" width="11" height="11" rx="2" ry="2" fill="#ebedf0" />
      <rect x="351" y="0" width="11" height="11" rx="2" ry="2" fill="#ebedf0" />
      <rect x="364" y="0" width="11" height="11" rx="2" ry="2" fill="#ebedf0" />
      <rect x="377" y="0" width="11" height="11" rx="2" ry="2" fill="#ebedf0" />
      <rect x="390" y="0" width="11" height="11" rx="2" ry="2" fill="#ebedf0" />
      <rect x="403" y="0" width="11" height="11" rx="2" ry="2" fill="#ebedf0" />
      <rect x="416" y="0" width="11" height="11" rx="2" ry="2" fill="#ebedf0" />
      <rect x="429" y="0" width="11" height="11" rx="2" ry="2" fill="#ebedf0" />
      <rect x="442" y="0" width="11" height="11" rx="2" ry="2" fill="#ebedf0" />
      <rect x="455" y="0" width="11" height="11" rx="2" ry="2" fill="#ebedf0" />
      <rect x="468" y="0" width="11" height="11" rx="2" ry="2" fill="#ebedf0" />
      <rect x="481" y="0" width="11" height="11" rx="2" ry="2" fill="#ebedf0" />
      <rect x="494" y="0" width="11" height="11" rx="2" ry="2" fill="#ebedf0" />
      <rect x="507" y="0" width="11" height="11" rx="2" ry="2" fill="#ebedf0" />
      <rect x="520" y="0" width="11" height="11" rx="2" ry="2" fill="#ebedf0" />
      <rect x="533" y="0" width="11" height="11" rx="2" ry="2" fill="#ebedf0" />
      <rect x="546" y="0" width="11" height="11" rx="2" ry="2" fill="#ebedf0" />
      <rect x="559" y="0" width="11" height="11" rx="2" ry="2" fill="#ebedf0" />
      <rect x="572" y="0" width="11" height="11" rx="2" ry="2" fill="#ebedf0" />
      <rect x="585" y="0" width="11" height="11" rx="2" ry="2" fill="#ebedf0" />
      <rect x="598" y="0" width="11" height="11" rx="2" ry="2" fill="#ebedf0" />
      <rect x="611" y="0" width="11" height="11" rx="2" ry="2" fill="#ebedf0" />
      <rect x="624" y="0" width="11" height="11" rx="2" ry="2" fill="#ebedf0" />
      <rect x="637" y="0" width="11" height="11" rx="2" ry="2" fill="#ebedf0" />
      <rect x="650" y="0" width="11" height="11" rx="2" ry="2" fill="#ebedf0" />
      <rect x="663" y="0" width="11" height="11" rx="2" ry="2" fill="#ebedf0" />
      <rect x="676" y="0" width="11" height="11" rx="2" ry="2" fill="#ebedf0" />
      <rect x="689" y="0" width="11" height="11" rx="2" ry="2" fill="#ebedf0" />
      <rect x="702" y="0" width="11" height="11" rx="2" ry="2" fill="#ebedf0" />
      <rect x="715" y="0" width="11" height="11" rx="2" ry="2" fill="#ebedf0" />
      <rect x="728" y="0" width="11" height="11" rx="2" ry="2" fill="#ebedf0" />
      <rect x="741" y="0" width="11" height="11" rx="2" ry="2" fill="#ebedf0" />
      <rect x="754" y="0" width="11" height="11" rx="2" ry="2" fill="#ebedf0" />
      <rect x="767" y="0" width="11" height="11" rx="2" ry="2" fill="#ebedf0" />
      <rect x="780" y="0" width="11" height="11" rx="2" ry="2" fill="#ebedf0" />
      <rect x="793" y="0" width="11" height="11" rx="2" ry="2" fill="#ebedf0" />
      <rect x="806" y="0" width="11" height="11" rx="2" ry="2" fill="#ebedf0" />
      <rect x="819" y="0" width="11" height="11" rx="2" ry="2" fill="#ebedf0" />
      
      <!-- Segunda linha (Segunda-feira) -->
      <rect x="0" y="18" width="11" height="11" rx="2" ry="2" fill="#ebedf0" />
      <rect x="13" y="18" width="11" height="11" rx="2" ry="2" fill="#ebedf0" />
      <rect x="26" y="18" width="11" height="11" rx="2" ry="2" fill="#9be9a8" />
      <rect x="39" y="18" width="11" height="11" rx="2" ry="2" fill="#ebedf0" />
      <rect x="52" y="18" width="11" height="11" rx="2" ry="2" fill="#ebedf0" />
      <rect x="65" y="18" width="11" height="11" rx="2" ry="2" fill="#9be9a8" />
      <rect x="78" y="18" width="11" height="11" rx="2" ry="2" fill="#ebedf0" />
      <rect x="91" y="18" width="11" height="11" rx="2" ry="2" fill="#ebedf0" />
      <rect x="104" y="18" width="11" height="11" rx="2" ry="2" fill="#ebedf0" />
      <rect x="117" y="18" width="11" height="11" rx="2" ry="2" fill="#ebedf0" />
      <rect x="130" y="18" width="11" height="11" rx="2" ry="2" fill="#ebedf0" />
      <rect x="143" y="18" width="11" height="11" rx="2" ry="2" fill="#ebedf0" />
      <rect x="156" y="18" width="11" height="11" rx="2" ry="2" fill="#ebedf0" />
      <rect x="169" y="18" width="11" height="11" rx="2" ry="2" fill="#ebedf0" />
      <rect x="182" y="18" width="11" height="11" rx="2" ry="2" fill="#ebedf0" />
      <rect x="195" y="18" width="11" height="11" rx="2" ry="2" fill="#ebedf0" />
      <rect x="208" y="18" width="11" height="11" rx="2" ry="2" fill="#ebedf0" />
      <rect x="221" y="18" width="11" height="11" rx="2" ry="2" fill="#ebedf0" />
      <rect x="234" y="18" width="11" height="11" rx="2" ry="2" fill="#ebedf0" />
      <rect x="247" y="18" width="11" height="11" rx="2" ry="2" fill="#ebedf0" />
      <rect x="260" y="18" width="11" height="11" rx="2" ry="2" fill="#ebedf0" />
      <rect x="273" y="18" width="11" height="11" rx="2" ry="2" fill="#ebedf0" />
      <rect x="286" y="18" width="11" height="11" rx="2" ry="2" fill="#ebedf0" />
      <rect x="299" y="18" width="11" height="11" rx="2" ry="2" fill="#ebedf0" />
      <rect x="312" y="18" width="11" height="11" rx="2" ry="2" fill="#ebedf0" />
      <rect x="325" y="18" width="11" height="11" rx="2" ry="2" fill="#ebedf0" />
      <rect x="338" y="18" width="11" height="11" rx="2" ry="2" fill="#ebedf0" />
      <rect x="351" y="18" width="11" height="11" rx="2" ry="2" fill="#ebedf0" />
      <rect x="364" y="18" width="11" height="11" rx="2" ry="2" fill="#ebedf0" />
      <rect x="377" y="18" width="11" height="11" rx="2" ry="2" fill="#ebedf0" />
      <rect x="390" y="18" width="11" height="11" rx="2" ry="2" fill="#ebedf0" />
      <rect x="403" y="18" width="11" height="11" rx="2" ry="2" fill="#ebedf0" />
      <rect x="416" y="18" width="11" height="11" rx="2" ry="2" fill="#ebedf0" />
      <rect x="429" y="18" width="11" height="11" rx="2" ry="2" fill="#ebedf0" />
      <rect x="442" y="18" width="11" height="11" rx="2" ry="2" fill="#ebedf0" />
      <rect x="455" y="18" width="11" height="11" rx="2" ry="2" fill="#ebedf0" />
      <rect x="468" y="18" width="11" height="11" rx="2" ry="2" fill="#ebedf0" />
      <rect x="481" y="18" width="11" height="11" rx="2" ry="2" fill="#ebedf0" />
      <rect x="494" y="18" width="11" height="11" rx="2" ry="2" fill="#ebedf0" />
      <rect x="507" y="18" width="11" height="11" rx="2" ry="2" fill="#ebedf0" />
      <rect x="520" y="18" width="11" height="11" rx="2" ry="2" fill="#ebedf0" />
      <rect x="533" y="18" width="11" height="11" rx="2" ry="2" fill="#ebedf0" />
      <rect x="546" y="18" width="11" height="11" rx="2" ry="2" fill="#ebedf0" />
      <rect x="559" y="18" width="11" height="11" rx="2" ry="2" fill="#ebedf0" />
      <rect x="572" y="18" width="11" height="11" rx="2" ry="2" fill="#ebedf0" />
      <rect x="585" y="18" width="11" height="11" rx="2" ry="2" fill="#ebedf0" />
      <rect x="598" y="18" width="11" height="11" rx="2" ry="2" fill="#ebedf0" />
      <rect x="611" y="18" width="11" height="11" rx="2" ry="2" fill="#ebedf0" />
      <rect x="624" y="18" width="11" height="11" rx="2" ry="2" fill="#ebedf0" />
      <rect x="637" y="18" width="11" height="11" rx="2" ry="2" fill="#ebedf0" />
      <rect x="650" y="18" width="11" height="11" rx="2" ry="2" fill="#ebedf0" />
      <rect x="663" y="18" width="11" height="11" rx="2" ry="2" fill="#ebedf0" />
      <rect x="676" y="18" width="11" height="11" rx="2" ry="2" fill="#ebedf0" />
      <rect x="689" y="18" width="11" height="11" rx="2" ry="2" fill="#ebedf0" />
      <rect x="702" y="18" width="11" height="11" rx="2" ry="2" fill="#ebedf0" />
      <rect x="715" y="18" width="11" height="11" rx="2" ry="2" fill="#ebedf0" />
      <rect x="728" y="18" width="11" height="11" rx="2" ry="2" fill="#ebedf0" />
      <rect x="741" y="18" width="11" height="11" rx="2" ry="2" fill="#ebedf0" />
      <rect x="754" y="18" width="11" height="11" rx="2" ry="2" fill="#ebedf0" />
      <rect x="767" y="18" width="11" height="11" rx="2" ry="2" fill="#ebedf0" />
      <rect x="780" y="18" width="11" height="11" rx="2" ry="2" fill="#ebedf0" />
      <rect x="793" y="18" width="11" height="11" rx="2" ry="2" fill="#ebedf0" />
      <rect x="806" y="18" width="11" height="11" rx="2" ry="2" fill="#ebedf0" />
      <rect x="819" y="18" width="11" height="11" rx="2" ry="2" fill="#ebedf0" />
      
      <!-- Terceira linha (Terça-feira) - exemplo com mais atividade -->
      <rect x="0" y="36" width="11" height="11" rx="2" ry="2" fill="#40c463" />
      <rect x="13" y="36" width="11" height="11" rx="2" ry="2" fill="#9be9a8" />
      <rect x="26" y="36" width="11" height="11" rx="2" ry="2" fill="#30a14e" />
      <rect x="39" y="36" width="11" height="11" rx="2" ry="2" fill="#ebedf0" />
      <rect x="52" y="36" width="11" height="11" rx="2" ry="2" fill="#9be9a8" />
      <rect x="65" y="36" width="11" height="11" rx="2" ry="2" fill="#216e39" />
      <rect x="78" y="36" width="11" height="11" rx="2" ry="2" fill="#40c463" />
      <rect x="91" y="36" width="11" height="11" rx="2" ry="2" fill="#9be9a8" />
      <rect x="104" y="36" width="11" height="11" rx="2" ry="2" fill="#ebedf0" />
      <rect x="117" y="36" width="11" height="11" rx="2" ry="2" fill="#ebedf0" />
      <rect x="130" y="36" width="11" height="11" rx="2" ry="2" fill="#ebedf0" />
      <rect x="143" y="36" width="11" height="11" rx="2" ry="2" fill="#ebedf0" />
      <rect x="156" y="36" width="11" height="11" rx="2" ry="2" fill="#ebedf0" />
      <rect x="169" y="36" width="11" height="11" rx="2" ry="2" fill="#ebedf0" />
      <rect x="182" y="36" width="11" height="11" rx="2" ry="2" fill="#ebedf0" />
      <rect x="195" y="36" width="11" height="11" rx="2" ry="2" fill="#ebedf0" />
      <rect x="208" y="36" width="11" height="11" rx="2" ry="2" fill="#ebedf0" />
      <rect x="221" y="36" width="11" height="11" rx="2" ry="2" fill="#ebedf0" />
      <rect x="234" y="36" width="11" height="11" rx="2" ry="2" fill="#ebedf0" />
      <rect x="247" y="36" width="11" height="11" rx="2" ry="2" fill="#ebedf0" />
      <rect x="260" y="36" width="11" height="11" rx="2" ry="2" fill="#ebedf0" />
      <rect x="273" y="36" width="11" height="11" rx="2" ry="2" fill="#ebedf0" />
      <rect x="286" y="36" width="11" height="11" rx="2" ry="2" fill="#ebedf0" />
      <rect x="299" y="36" width="11" height="11" rx="2" ry="2" fill="#ebedf0" />
      <rect x="312" y="36" width="11" height="11" rx="2" ry="2" fill="#ebedf0" />
      <rect x="325" y="36" width="11" height="11" rx="2" ry="2" fill="#ebedf0" />
      <rect x="338" y="36" width="11" height="11" rx="2" ry="2" fill="#ebedf0" />
      <rect x="351" y="36" width="11" height="11" rx="2" ry="2" fill="#ebedf0" />
      <rect x="364" y="36" width="11" height="11" rx="2" ry="2" fill="#ebedf0" />
      <rect x="377" y="36" width="11" height="11" rx="2" ry="2" fill="#ebedf0" />
      <rect x="390" y="36" width="11" height="11" rx="2" ry="2" fill="#ebedf0" />
      <rect x="403" y="36" width="11" height="11" rx="2" ry="2" fill="#ebedf0" />
      <rect x="416" y="36" width="11" height="11" rx="2" ry="2" fill="#ebedf0" />
      <rect x="429" y="36" width="11" height="11" rx="2" ry="2" fill="#ebedf0" />
      <rect x="442" y="36" width="11" height="11" rx="2" ry="2" fill="#ebedf0" />
      <rect x="455" y="36" width="11" height="11" rx="2" ry="2" fill="#ebedf0" />
      <rect x="468" y="36" width="11" height="11" rx="2" ry="2" fill="#ebedf0" />
      <rect x="481" y="36" width="11" height="11" rx="2" ry="2" fill="#ebedf0" />
      <rect x="494" y="36" width="11" height="11" rx="2" ry="2" fill="#ebedf0" />
      <rect x="507" y="36" width="11" height="11" rx="2" ry="2" fill="#ebedf0" />
      <rect x="520" y="36" width="11" height="11" rx="2" ry="2" fill="#ebedf0" />
      <rect x="533" y="36" width="11" height="11" rx="2" ry="2" fill="#ebedf0" />
      <rect x="546" y="36" width="11" height="11" rx="2" ry="2" fill="#ebedf0" />
      <rect x="559" y="36" width="11" height="11" rx="2" ry="2" fill="#ebedf0" />
      <rect x="572" y="36" width="11" height="11" rx="2" ry="2" fill="#ebedf0" />
      <rect x="585" y="36" width="11" height="11" rx="2" ry="2" fill="#ebedf0" />
      <rect x="598" y="36" width="11" height="11" rx="2" ry="2" fill="#ebedf0" />
      <rect x="611" y="36" width="11" height="11" rx="2" ry="2" fill="#ebedf0" />
      <rect x="624" y="36" width="11" height="11" rx="2" ry="2" fill="#ebedf0" />
      <rect x="637" y="36" width="11" height="11" rx="2" ry="2" fill="#ebedf0" />
      <rect x="650" y="36" width="11" height="11" rx="2" ry="2" fill="#ebedf0" />
      <rect x="663" y="36" width="11" height="11" rx="2" ry="2" fill="#ebedf0" />
      <rect x="676" y="36" width="11" height="11" rx="2" ry="2" fill="#ebedf0" />
      <rect x="689" y="36" width="11" height="11" rx="2" ry="2" fill="#ebedf0" />
      <rect x="702" y="36" width="11" height="11" rx="2" ry="2" fill="#ebedf0" />
      <rect x="715" y="36" width="11" height="11" rx="2" ry="2" fill="#ebedf0" />
      <rect x="728" y="36" width="11" height="11" rx="2" ry="2" fill="#ebedf0" />
      <rect x="741" y="36" width="11" height="11" rx="2" ry="2" fill="#ebedf0" />
      <rect x="754" y="36" width="11" height="11" rx="2" ry="2" fill="#ebedf0" />
      <rect x="767" y="36" width="11" height="11" rx="2" ry="2" fill="#ebedf0" />
      <rect x="780" y="36" width="11" height="11" rx="2" ry="2" fill="#ebedf0" />
      <rect x="793" y="36" width="11" height="11" rx="2" ry="2" fill="#ebedf0" />
      <rect x="806" y="36" width="11" height="11" rx="2" ry="2" fill="#ebedf0" />
      <rect x="819" y="36" width="11" height="11" rx="2" ry="2" fill="#ebedf0" />
      
      <!-- As demais linhas (Quarta a Sábado) seguem padrão similar -->
      <!-- Quarta-feira -->
      <rect x="0" y="54" width="11" height="11" rx="2" ry="2" fill="#ebedf0" />
      <rect x="13" y="54" width="11" height="11" rx="2" ry="2" fill="#9be9a8" />
      <rect x="26" y="54" width="11" height="11" rx="2" ry="2" fill="#40c463" />
      <rect x="39" y="54" width="11" height="11" rx="2" ry="2" fill="#9be9a8" />
      <rect x="52" y="54" width="11" height="11" rx="2" ry="2" fill="#ebedf0" />
      <rect x="65" y="54" width="11" height="11" rx="2" ry="2" fill="#40c463" />
      <rect x="78" y="54" width="11" height="11" rx="2" ry="2" fill="#ebedf0" />
      <rect x="91" y="54" width="11" height="11" rx="2" ry="2" fill="#ebedf0" />
      <rect x="104" y="54" width="11" height="11" rx="2" ry="2" fill="#ebedf0" />
      <rect x="117" y="54" width="11" height="11" rx="2" ry="2" fill="#ebedf0" />
      <rect x="130" y="54" width="11" height="11" rx="2" ry="2" fill="#ebedf0" />
      <rect x="143" y="54" width="11" height="11" rx="2" ry="2" fill="#ebedf0" />
      <rect x="156" y="54" width="11" height="11" rx="2" ry="2" fill="#ebedf0" />
      <rect x="169" y="54" width="11" height="11" rx="2" ry="2" fill="#ebedf0" />
      <rect x="182" y="54" width="11" height="11" rx="2" ry="2" fill="#ebedf0" />
      <rect x="195" y="54" width="11" height="11" rx="2" ry="2" fill="#ebedf0" />
      <rect x="208" y="54" width="11" height="11" rx="2" ry="2" fill="#ebedf0" />
      <rect x="221" y="54" width="11" height="11" rx="2" ry="2" fill="#ebedf0" />
      <rect x="234" y="54" width="11" height="11" rx="2" ry="2" fill="#ebedf0" />
      <rect x="247" y="54" width="11" height="11" rx="2" ry="2" fill="#ebedf0" />
      <rect x="260" y="54" width="11" height="11" rx="2" ry="2" fill="#ebedf0" />
      <rect x="273" y="54" width="11" height="11" rx="2" ry="2" fill="#ebedf0" />
      <rect x="286" y="54" width="11" height="11" rx="2" ry="2" fill="#ebedf0" />
      <rect x="299" y="54" width="11" height="11" rx="2" ry="2" fill="#ebedf0" />
      <rect x="312" y="54" width="11" height="11" rx="2" ry="2" fill="#ebedf0" />
      <rect x="325" y="54" width="11" height="11" rx="2" ry="2" fill="#ebedf0" />
      <rect x="338" y="54" width="11" height="11" rx="2" ry="2" fill="#ebedf0" />
      <rect x="351" y="54" width="11" height="11" rx="2" ry="2" fill="#ebedf0" />
      <rect x="364" y="54" width="11" height="11" rx="2" ry="2" fill="#ebedf0" />
      <rect x="377" y="54" width="11" height="11" rx="2" ry="2" fill="#ebedf0" />
      <rect x="390" y="54" width="11" height="11" rx="2" ry="2" fill="#ebedf0" />
      <rect x="403" y="54" width="11" height="11" rx="2" ry="2" fill="#ebedf0" />
      <rect x="416" y="54" width="11" height="11" rx="2" ry="2" fill="#ebedf0" />
      <rect x="429" y="54" width="11" height="11" rx="2" ry="2" fill="#ebedf0" />
      <rect x="442" y="54" width="11" height="11" rx="2" ry="2" fill="#ebedf0" />
      <rect x="455" y="54" width="11" height="11" rx="2" ry="2" fill="#ebedf0" />
      <rect x="468" y="54" width="11" height="11" rx="2" ry="2" fill="#ebedf0" />
      <rect x="481" y="54" width="11" height="11" rx="2" ry="2" fill="#ebedf0" />
      <rect x="494" y="54" width="11" height="11" rx="2" ry="2" fill="#ebedf0" />
      <rect x="507" y="54" width="11" height="11" rx="2" ry="2" fill="#ebedf0" />
      <rect x="520" y="54" width="11" height="11" rx="2" ry="2" fill="#ebedf0" />
      <rect x="533" y="54" width="11" height="11" rx="2" ry="2" fill="#ebedf0" />
      <rect x="546" y="54" width="11" height="11" rx="2" ry="2" fill="#ebedf0" />
      <rect x="559" y="54" width="11" height="11" rx="2" ry="2" fill="#ebedf0" />
      <rect x="572" y="54" width="11" height="11" rx="2" ry="2" fill="#ebedf0" />
      <rect x="585" y="54" width="11" height="11" rx="2" ry="2" fill="#ebedf0" />
      <rect x="598" y="54" width="11" height="11" rx="2" ry="2" fill="#ebedf0" />
      <rect x="611" y="54" width="11" height="11" rx="2" ry="2" fill="#ebedf0" />
      <rect x="624" y="54" width="11" height="11" rx="2" ry="2" fill="#ebedf0" />
      <rect x="637" y="54" width="11" height="11" rx="2" ry="2" fill="#ebedf0" />
      <rect x="650" y="54" width="11" height="11" rx="2" ry="2" fill="#ebedf0" />
      <rect x="663" y="54" width="11" height="11" rx="2" ry="2" fill="#ebedf0" />
      <rect x="676" y="54" width="11" height="11" rx="2" ry="2" fill="#ebedf0" />
      <rect x="689" y="54" width="11" height="11" rx="2" ry="2" fill="#ebedf0" />
      <rect x="702" y="54" width="11" height="11" rx="2" ry="2" fill="#ebedf0" />
      <rect x="715" y="54" width="11" height="11" rx="2" ry="2" fill="#ebedf0" />
      <rect x="728" y="54" width="11" height="11" rx="2" ry="2" fill="#ebedf0" />
      <rect x="741" y="54" width="11" height="11" rx="2" ry="2" fill="#ebedf0" />
      <rect x="754" y="54" width="11" height="11" rx="2" ry="2" fill="#ebedf0" />
      <rect x="767" y="54" width="11" height="11" rx="2" ry="2" fill="#ebedf0" />
      <rect x="780" y="54" width="11" height="11" rx="2" ry="2" fill="#ebedf0" />
      <rect x="793" y="54" width="11" height="11" rx="2" ry="2" fill="#ebedf0" />
      <rect x="806" y="54" width="11" height="11" rx="2" ry="2" fill="#ebedf0" />
      <rect x="819" y="54" width="11" height="11" rx="2" ry="2" fill="#ebedf0" />
      
      <!-- Quinta-feira -->
      <rect x="0" y="72" width="11" height="11" rx="2" ry="2" fill="#ebedf0" />
      <rect x="13" y="72" width="11" height="11" rx="2" ry="2" fill="#ebedf0" />
      <rect x="26" y="72" width="11" height="11" rx="2" ry="2" fill="#9be9a8" />
      <rect x="39" y="72" width="11" height="11" rx="2" ry="2" fill="#ebedf0" />
      <rect x="52" y="72" width="11" height="11" rx="2" ry="2" fill="#ebedf0" />
      <rect x="65" y="72" width="11" height="11" rx="2" ry="2" fill="#9be9a8" />
      <rect x="78" y="72" width="11" height="11" rx="2" ry="2" fill="#40c463" />
      <rect x="91" y="72" width="11" height="11" rx="2" ry="2" fill="#ebedf0" />
      <rect x="104" y="72" width="11" height="11" rx="2" ry="2" fill="#ebedf0" />
      <rect x="117" y="72" width="11" height="11" rx="2" ry="2" fill="#ebedf0" />
      <rect x="130" y="72" width="11" height="11" rx="2" ry="2" fill="#ebedf0" />
      <rect x="143" y="72" width="11" height="11" rx="2" ry="2" fill="#ebedf0" />
      <rect x="156" y="72" width="11" height="11" rx="2" ry="2" fill="#ebedf0" />
      <rect x="169" y="72" width="11" height="11" rx="2" ry="2" fill="#ebedf0" />
      <rect x="182" y="72" width="11" height="11" rx="2" ry="2" fill="#ebedf0" />
      <rect x="195" y="72" width="11" height="11" rx="2" ry="2" fill="#ebedf0" />
      <rect x="208" y="72" width="11" height="11" rx="2" ry="2" fill="#ebedf0" />
      <rect x="221" y="72" width="11" height="11" rx="2" ry="2" fill="#ebedf0" />
      <rect x="234" y="72" width="11" height="11" rx="2" ry="2" fill="#ebedf0" />
      <rect x="247" y="72" width="11" height="11" rx="2" ry="2" fill="#ebedf0" />
      <rect x="260" y="72" width="11" height="11" rx="2" ry="2" fill="#ebedf0" />
      <rect x="273" y="72" width="11" height="11" rx="2" ry="2" fill="#ebedf0" />
      <rect x="286" y="72" width="11" height="11" rx="2" ry="2" fill="#ebedf0" />
      <rect x="299" y="72" width="11" height="11" rx="2" ry="2" fill="#ebedf0" />
      <rect x="312" y="72" width="11" height="11" rx="2" ry="2" fill="#ebedf0" />
      <rect x="325" y="72" width="11" height="11" rx="2" ry="2" fill="#ebedf0" />
      <rect x="338" y="72" width="11" height="11" rx="2" ry="2" fill="#ebedf0" />
      <rect x="351" y="72" width="11" height="11" rx="2" ry="2" fill="#ebedf0" />
      <rect x="364" y="72" width="11" height="11" rx="2" ry="2" fill="#ebedf0" />
      <rect x="377" y="72" width="11" height="11" rx="2" ry="2" fill="#ebedf0" />
      <rect x="390" y="72" width="11" height="11" rx="2" ry="2" fill="#ebedf0" />
      <rect x="403" y="72" width="11" height="11" rx="2" ry="2" fill="#ebedf0" />
      <rect x="416" y="72" width="11" height="11" rx="2" ry="2" fill="#ebedf0" />
      <rect x="429" y="72" width="11" height="11" rx="2" ry="2" fill="#ebedf0" />
      <rect x="442" y="72" width="11" height="11" rx="2" ry="2" fill="#ebedf0" />
      <rect x="455" y="72" width="11" height="11" rx="2" ry="2" fill="#ebedf0" />
      <rect x="468" y="72" width="11" height="11" rx="2" ry="2" fill="#ebedf0" />
      <rect x="481" y="72" width="11" height="11" rx="2" ry="2" fill="#ebedf0" />
      <rect x="494" y="72" width="11" height="11" rx="2" ry="2" fill="#ebedf0" />
      <rect x="507" y="72" width="11" height="11" rx="2" ry="2" fill="#ebedf0" />
      <rect x="520" y="72" width="11" height="11" rx="2" ry="2" fill="#ebedf0" />
      <rect x="533" y="72" width="11" height="11" rx="2" ry="2" fill="#ebedf0" />
      <rect x="546" y="72" width="11" height="11" rx="2" ry="2" fill="#ebedf0" />
      <rect x="559" y="72" width="11" height="11" rx="2" ry="2" fill="#ebedf0" />
      <rect x="572" y="72" width="11" height="11" rx="2" ry="2" fill="#ebedf0" />
      <rect x="585" y="72" width="11" height="11" rx="2" ry="2" fill="#ebedf0" />
      <rect x="598" y="72" width="11" height="11" rx="2" ry="2" fill="#ebedf0" />
      <rect x="611" y="72" width="11" height="11" rx="2" ry="2" fill="#ebedf0" />
      <rect x="624" y="72" width="11" height="11" rx="2" ry="2" fill="#ebedf0" />
      <rect x="637" y="72" width="11" height="11" rx="2" ry="2" fill="#ebedf0" />
      <rect x="650" y="72" width="11" height="11" rx="2" ry="2" fill="#ebedf0" />
      <rect x="663" y="72" width="11" height="11" rx="2" ry="2" fill="#ebedf0" />
      <rect x="676" y="72" width="11" height="11" rx="2" ry="2" fill="#ebedf0" />
      <rect x="689" y="72" width="11" height="11" rx="2" ry="2" fill="#ebedf0" />
      <rect x="702" y="72" width="11" height="11" rx="2" ry="2" fill="#ebedf0" />
      <rect x="715" y="72" width="11" height="11" rx="2" ry="2" fill="#ebedf0" />
      <rect x="728" y="72" width="11" height="11" rx="2" ry="2" fill="#ebedf0" />
      <rect x="741" y="72" width="11" height="11" rx="2" ry="2" fill="#ebedf0" />
      <rect x="754" y="72" width="11" height="11" rx="2" ry="2" fill="#ebedf0" />
      <rect x="767" y="72" width="11" height="11" rx="2" ry="2" fill="#ebedf0" />
      <rect x="780" y="72" width="11" height="11" rx="2" ry="2" fill="#ebedf0" />
      <rect x="793" y="72" width="11" height="11" rx="2" ry="2" fill="#ebedf0" />
      <rect x="806" y="72" width="11" height="11" rx="2" ry="2" fill="#ebedf0" />
      <rect x="819" y="72" width="11" height="11" rx="2" ry="2" fill="#ebedf0" />
      
      <!-- Sexta-feira -->
      <rect x="0" y="90" width="11" height="11" rx="2" ry="2" fill="#ebedf0" />
      <rect x="13" y="90" width="11" height="11" rx="2" ry="2" fill="#ebedf0" />
      <rect x="26" y="90" width="11" height="11" rx="2" ry="2" fill="#9be9a8" />
      <rect x="39" y="90" width="11" height="11" rx="2" ry="2" fill="#ebedf0" />
      <rect x="52" y="90" width="11" height="11" rx="2" ry="2" fill="#ebedf0" />
      <rect x="65" y="90" width="11" height="11" rx="2" ry="2" fill="#9be9a8" />
      <rect x="78" y="90" width="11" height="11" rx="2" ry="2" fill="#ebedf0" />
      <rect x="91" y="90" width="11" height="11" rx="2" ry="2" fill="#ebedf0" />
      <rect x="104" y="90" width="11" height="11" rx="2" ry="2" fill="#ebedf0" />
      <rect x="117" y="90" width="11" height="11" rx="2" ry="2" fill="#ebedf0" />
      <rect x="130" y="90" width="11" height="11" rx="2" ry="2" fill="#ebedf0" />
      <rect x="143" y="90" width="11" height="11" rx="2" ry="2" fill="#ebedf0" />
      <rect x="156" y="90" width="11" height="11" rx="2" ry="2" fill="#ebedf0" />
      <rect x="169" y="90" width="11" height="11" rx="2" ry="2" fill="#ebedf0" />
      <rect x="182" y="90" width="11" height="11" rx="2" ry="2" fill="#ebedf0" />
      <rect x="195" y="90" width="11" height="11" rx="2" ry="2" fill="#ebedf0" />
      <rect x="208" y="90" width="11" height="11" rx="2" ry="2" fill="#ebedf0" />
      <rect x="221" y="90" width="11" height="11" rx="2" ry="2" fill="#ebedf0" />
      <rect x="234" y="90" width="11" height="11" rx="2" ry="2" fill="#ebedf0" />
      <rect x="247" y="90" width="11" height="11" rx="2" ry="2" fill="#ebedf0" />
      <rect x="260" y="90" width="11" height="11" rx="2" ry="2" fill="#ebedf0" />
      <rect x="273" y="90" width="11" height="11" rx="2" ry="2" fill="#ebedf0" />
      <rect x="286" y="90" width="11" height="11" rx="2" ry="2" fill="#ebedf0" />
      <rect x="299" y="90" width="11" height="11" rx="2" ry="2" fill="#ebedf0" />
      <rect x="312" y="90" width="11" height="11" rx="2" ry="2" fill="#ebedf0" />
      <rect x="325" y="90" width="11" height="11" rx="2" ry="2" fill="#ebedf0" />
      <rect x="338" y="90" width="11" height="11" rx="2" ry="2" fill="#ebedf0" />
      <rect x="351" y="90" width="11" height="11" rx="2" ry="2" fill="#ebedf0" />
      <rect x="364" y="90" width="11" height="11" rx="2" ry="2" fill="#ebedf0" />
      <rect x="377" y="90" width="11" height="11" rx="2" ry="2" fill="#ebedf0" />
      <rect x="390" y="90" width="11" height="11" rx="2" ry="2" fill="#ebedf0" />
      <rect x="403" y="90" width="11" height="11" rx="2" ry="2" fill="#ebedf0" />
      <rect x="416" y="90" width="11" height="11" rx="2" ry="2" fill="#ebedf0" />
      <rect x="429" y="90" width="11" height="11" rx="2" ry="2" fill="#ebedf0" />
      <rect x="442" y="90" width="11" height="11" rx="2" ry="2" fill="#ebedf0" />
      <rect x="455" y="90" width="11" height="11" rx="2" ry="2" fill="#ebedf0" />
      <rect x="468" y="90" width="11" height="11" rx="2" ry="2" fill="#ebedf0" />
      <rect x="481" y="90" width="11" height="11" rx="2" ry="2" fill="#ebedf0" />
      <rect x="494" y="90" width="11" height="11" rx="2" ry="2" fill="#ebedf0" />
      <rect x="507" y="90" width="11" height="11" rx="2" ry="2" fill="#ebedf0" />
      <rect x="520" y="90" width="11" height="11" rx="2" ry="2" fill="#ebedf0" />
      <rect x="533" y="90" width="11" height="11" rx="2" ry="2" fill="#ebedf0" />
      <rect x="546" y="90" width="11" height="11" rx="2" ry="2" fill="#ebedf0" />
      <rect x="559" y="90" width="11" height="11" rx="2" ry="2" fill="#ebedf0" />
      <rect x="572" y="90" width="11" height="11" rx="2" ry="2" fill="#ebedf0" />
      <rect x="585" y="90" width="11" height="11" rx="2" ry="2" fill="#ebedf0" />
      <rect x="598" y="90" width="11" height="11" rx="2" ry="2" fill="#ebedf0" />
      <rect x="611" y="90" width="11" height="11" rx="2" ry="2" fill="#ebedf0" />
      <rect x="624" y="90" width="11" height="11" rx="2" ry="2" fill="#ebedf0" />
      <rect x="637" y="90" width="11" height="11" rx="2" ry="2" fill="#ebedf0" />
      <rect x="650" y="90" width="11" height="11" rx="2" ry="2" fill="#ebedf0" />
      <rect x="663" y="90" width="11" height="11" rx="2" ry="2" fill="#ebedf0" />
      <rect x="676" y="90" width="11" height="11" rx="2" ry="2" fill="#ebedf0" />
      <rect x="689" y="90" width="11" height="11" rx="2" ry="2" fill="#ebedf0" />
      <rect x="702" y="90" width="11" height="11" rx="2" ry="2" fill="#ebedf0" />
      <rect x="715" y="90" width="11" height="11" rx="2" ry="2" fill="#ebedf0" />
      <rect x="728" y="90" width="11" height="11" rx="2" ry="2" fill="#ebedf0" />
      <rect x="741" y="90" width="11" height="11" rx="2" ry="2" fill="#ebedf0" />
      <rect x="754" y="90" width="11" height="11" rx="2" ry="2" fill="#ebedf0" />
      <rect x="767" y="90" width="11" height="11" rx="2" ry="2" fill="#ebedf0" />
      <rect x="780" y="90" width="11" height="11" rx="2" ry="2" fill="#ebedf0" />
      <rect x="793" y="90" width="11" height="11" rx="2" ry="2" fill="#ebedf0" />
      <rect x="806" y="90" width="11" height="11" rx="2" ry="2" fill="#ebedf0" />
      <rect x="819" y="90" width="11" height="11" rx="2" ry="2" fill="#ebedf0" />
      
      <!-- Sábado -->
      <rect x="0" y="108" width="11" height="11" rx="2" ry="2" fill="#ebedf0" />
      <rect x="13" y="108" width="11" height="11" rx="2" ry="2" fill="#ebedf0" />
      <rect x="26" y="108" width="11" height="11" rx="2" ry="2" fill="#9be9a8" />
      <rect x="39" y="108" width="11" height="11" rx="2" ry="2" fill="#ebedf0" />
      <rect x="52" y="108" width="11" height="11" rx="2" ry="2" fill="#ebedf0" />
      <rect x="65" y="108" width="11" height="11" rx="2" ry="2" fill="#9be9a8" />
      <rect x="78" y="108" width="11" height="11" rx="2" ry="2" fill="#ebedf0" />
      <rect x="91" y="108" width="11" height="11" rx="2" ry="2" fill="#ebedf0" />
      <rect x="104" y="108" width="11" height="11" rx="2" ry="2" fill="#ebedf0" />
      <rect x="117" y="108" width="11" height="11" rx="2" ry="2" fill="#ebedf0" />
      <rect x="130" y="108" width="11" height="11" rx="2" ry="2" fill="#ebedf0" />
      <rect x="143" y="108" width="11" height="11" rx="2" ry="2" fill="#ebedf0" />
      <rect x="156" y="108" width="11" height="11" rx="2" ry="2" fill="#ebedf0" />
      <rect x="169" y="108" width="11" height="11" rx="2" ry="2" fill="#ebedf0" />
      <rect x="182" y="108" width="11" height="11" rx="2" ry="2" fill="#ebedf0" />
      <rect x="195" y="108" width="11" height="11" rx="2" ry="2" fill="#ebedf0" />
      <rect x="208" y="108" width="11" height="11" rx="2" ry="2" fill="#ebedf0" />
      <rect x="221" y="108" width="11" height="11" rx="2" ry="2" fill="#ebedf0" />
      <rect x="234" y="108" width="11" height="11" rx="2" ry="2" fill="#ebedf0" />
      <rect x="247" y="108" width="11" height="11" rx="2" ry="2" fill="#ebedf0" />
      <rect x="260" y="108" width="11" height="11" rx="2" ry="2" fill="#ebedf0" />
      <rect x="273" y="108" width="11" height="11" rx="2" ry="2" fill="#ebedf0" />
      <rect x="286" y="108" width="11" height="11" rx="2" ry="2" fill="#ebedf0" />
      <rect x="299" y="108" width="11" height="11" rx="2" ry="2" fill="#ebedf0" />
      <rect x="312" y="108" width="11" height="11" rx="2" ry="2" fill="#ebedf0" />
      <rect x="325" y="108" width="11" height="11" rx="2" ry="2" fill="#ebedf0" />
      <rect x="338" y="108" width="11" height="11" rx="2" ry="2" fill="#ebedf0" />
      <rect x="351" y="108" width="11" height="11" rx="2" ry="2" fill="#ebedf0" />
      <rect x="364" y="108" width="11" height="11" rx="2" ry="2" fill="#ebedf0" />
      <rect x="377" y="108" width="11" height="11" rx="2" ry="2" fill="#ebedf0" />
      <rect x="390" y="108" width="11" height="11" rx="2" ry="2" fill="#ebedf0" />
      <rect x="403" y="108" width="11" height="11" rx="2" ry="2" fill="#ebedf0" />
      <rect x="416" y="108" width="11" height="11" rx="2" ry="2" fill="#ebedf0" />
      <rect x="429" y="108" width="11" height="11" rx="2" ry="2" fill="#ebedf0" />
      <rect x="442" y="108" width="11" height="11" rx="2" ry="2" fill="#ebedf0" />
      <rect x="455" y="108" width="11" height="11" rx="2" ry="2" fill="#ebedf0" />
      <rect x="468" y="108" width="11" height="11" rx="2" ry="2" fill="#ebedf0" />
      <rect x="481" y="108" width="11" height="11" rx="2" ry="2" fill="#ebedf0" />
      <rect x="494" y="108" width="11" height="11" rx="2" ry="2" fill="#ebedf0" />
      <rect x="507" y="108" width="11" height="11" rx="2" ry="2" fill="#ebedf0" />
      <rect x="520" y="108" width="11" height="11" rx="2" ry="2" fill="#ebedf0" />
      <rect x="533" y="108" width="11" height="11" rx="2" ry="2" fill="#ebedf0" />
      <rect x="546" y="108" width="11" height="11" rx="2" ry="2" fill="#ebedf0" />
      <rect x="559" y="108" width="11" height="11" rx="2" ry="2" fill="#ebedf0" />
      <rect x="572" y="108" width="11" height="11" rx="2" ry="2" fill="#ebedf0" />
      <rect x="585" y="108" width="11" height="11" rx="2" ry="2" fill="#ebedf0" />
      <rect x="598" y="108" width="11" height="11" rx="2" ry="2" fill="#ebedf0" />
      <rect x="611" y="108" width="11" height="11" rx="2" ry="2" fill="#ebedf0" />
      <rect x="624" y="108" width="11" height="11" rx="2" ry="2" fill="#ebedf0" />
      <rect x="637" y="108" width="11" height="11" rx="2" ry="2" fill="#ebedf0" />
      <rect x="650" y="108" width="11" height="11" rx="2" ry="2" fill="#ebedf0" />
      <rect x="663" y="108" width="11" height="11" rx="2" ry="2" fill="#ebedf0" />
      <rect x="676" y="108" width="11" height="11" rx="2" ry="2" fill="#ebedf0" />
      <rect x="689" y="108" width="11" height="11" rx="2" ry="2" fill="#ebedf0" />
      <rect x="702" y="108" width="11" height="11" rx="2" ry="2" fill="#ebedf0" />
      <rect x="715" y="108" width="11" height="11" rx="2" ry="2" fill="#ebedf0" />
      <rect x="728" y="108" width="11" height="11" rx="2" ry="2" fill="#ebedf0" />
      <rect x="741" y="108" width="11" height="11" rx="2" ry="2" fill="#ebedf0" />
      <rect x="754" y="108" width="11" height="11" rx="2" ry="2" fill="#ebedf0" />
      <rect x="767" y="108" width="11" height="11" rx="2" ry="2" fill="#ebedf0" />
      <rect x="780" y="108" width="11" height="11" rx="2" ry="2" fill="#ebedf0" />
      <rect x="793" y="108" width="11" height="11" rx="2" ry="2" fill="#ebedf0" />
      <rect x="806" y="108" width="11" height="11" rx="2" ry="2" fill="#ebedf0" />
      <rect x="819" y="108" width="11" height="11" rx="2" ry="2" fill="#ebedf0" />
    </g>
    
    <!-- Legenda de meses (exemplo simplificado) -->
    <text x="0" y="-5" style="font-size: 10px; fill: #586069;">Jan</text>
    <text x="104" y="-5" style="font-size: 10px; fill: #586069;">Fev</text>
    <text x="208" y="-5" style="font-size: 10px; fill: #586069;">Mar</text>
    <text x="312" y="-5" style="font-size: 10px; fill: #586069;">Abr</text>
    <text x="416" y="-5" style="font-size: 10px; fill: #586069;">Mai</text>
    <text x="520" y="-5" style="font-size: 10px; fill: #586069;">Jun</text>
    <text x="624" y="-5" style="font-size: 10px; fill: #586069;">Jul</text>
    <text x="728" y="-5" style="font-size: 10px; fill: #586069;">Ago</text>
  </g>
</svg>