<svg width="920" height="138" viewBox="0 0 920 138" xmlns="http://www.w3.org/2000/svg">
  <rect width="100%" height="100%" fill="#0d1117" />
  
  <style>
    .day { rx: 2; ry: 2; shape-rendering: geometricPrecision; stroke: rgba(27,31,35,0.06); stroke-width: 1; }
    .month { font-family: -apple-system, BlinkMacSystemFont, "Segoe UI", Helvetica, Arial, sans-serif, "Apple Color Emoji", "Segoe UI Emoji"; font-size: 10px; fill: #c9d1d9; }
    .wday { font-family: -apple-system, BlinkMacSystemFont, "Segoe UI", Helvetica, Arial, sans-serif, "Apple Color Emoji", "Segoe UI Emoji"; font-size: 9px; fill: #c9d1d9; display: none; }
    text.wday[dx="-10"] { display: block; }
  </style>
  <g transform="translate(16, 20)">
    <text x="15" y="-8" class="month">Jan</text>
    <text x="75" y="-8" class="month">Feb</text>
    <text x="135" y="-8" class="month">Mar</text>
    <text x="195" y="-8" class="month">Apr</text>
    <text x="255" y="-8" class="month">May</text>
    <text x="315" y="-8" class="month">Jun</text>
    <text x="375" y="-8" class="month">Jul</text>
    <text x="435" y="-8" class="month">Aug</text>
    <text x="495" y="-8" class="month">Sep</text>
    <text x="555" y="-8" class="month">Oct</text>
    <text x="615" y="-8" class="month">Nov</text>
    <text x="675" y="-8" class="month">Dec</text>

    <text text-anchor="start" class="wday" dx="-14" dy="8" style="display: none;">Sun</text>
    <text text-anchor="start" class="wday" dx="-14" dy="22">Mon</text>
    <text text-anchor="start" class="wday" dx="-14" dy="36" style="display: none;">Tue</text>
    <text text-anchor="start" class="wday" dx="-14" dy="50">Wed</text>
    <text text-anchor="start" class="wday" dx="-14" dy="64" style="display: none;">Thu</text>
    <text text-anchor="start" class="wday" dx="-14" dy="78">Fri</text>
    <text text-anchor="start" class="wday" dx="-14" dy="92" style="display: none;">Sat</text>

    <g transform="translate(0,0)"><rect class="day" width="10" height="10" x="0" y="39" fill="#161b22"></rect><rect class="day" width="10" height="10" x="0" y="52" fill="#0e4429"></rect><rect class="day" width="10" height="10" x="0" y="65" fill="#161b22"></rect><rect class="day" width="10" height="10" x="0" y="78" fill="#161b22"></rect></g>
    <g transform="translate(14,0)"><rect class="day" width="10" height="10" x="0" y="0" fill="#161b22"></rect><rect class="day" width="10" height="10" x="0" y="13" fill="#161b22"></rect><rect class="day" width="10" height="10" x="0" y="26" fill="#26a641"></rect><rect class="day" width="10" height="10" x="0" y="39" fill="#161b22"></rect><rect class="day" width="10" height="10" x="0" y="52" fill="#161b22"></rect><rect class="day" width="10" height="10" x="0" y="65" fill="#006d32"></rect><rect class="day" width="10" height="10" x="0" y="78" fill="#161b22"></rect></g>
    <g transform="translate(28,0)"><rect class="day" width="10" height="10" x="0" y="0" fill="#161b22"></rect><rect class="day" width="10" height="10" x="0" y="13" fill="#161b22"></rect><rect class="day" width="10" height="10" x="0" y="26" fill="#161b22"></rect><rect class="day" width="10" height="10" x="0" y="39" fill="#0e4429"></rect><rect class="day" width="10" height="10" x="0" y="52" fill="#161b22"></rect><rect class="day" width="10" height="10" x="0" y="65" fill="#161b22"></rect><rect class="day" width="10" height="10" x="0" y="78" fill="#161b22"></rect></g>
    <g transform="translate(42,0)"><rect class="day" width="10" height="10" x="0" y="0" fill="#161b22"></rect><rect class="day" width="10" height="10" x="0" y="13" fill="#161b22"></rect><rect class="day" width="10" height="10" x="0" y="26" fill="#26a641"></rect><rect class="day" width="10" height="10" x="0" y="39" fill="#161b22"></rect><rect class="day" width="10" height="10" x="0" y="52" fill="#006d32"></rect><rect class="day" width="10" height="10" x="0" y="65" fill="#161b22"></rect><rect class="day" width="10" height="10" x="0" y="78" fill="#161b22"></rect></g>
    <g transform="translate(56,0)"><rect class="day" width="10" height="10" x="0" y="0" fill="#161b22"></rect><rect class="day" width="10" height="10" x="0" y="13" fill="#0e4429"></rect><rect class="day" width="10" height="10" x="0" y="26" fill="#161b22"></rect><rect class="day" width="10" height="10" x="0" y="39" fill="#161b22"></rect><rect class="day" width="10" height="10" x="0" y="52" fill="#161b22"></rect><rect class="day" width="10" height="10" x="0" y="65" fill="#161b22"></rect><rect class="day" width="10" height="10" x="0" y="78" fill="#26a641"></rect></g>

    <g transform="translate(70,0)"><rect class="day" width="10" height="10" x="0" y="0" fill="#161b22"></rect><rect class="day" width="10" height="10" x="0" y="13" fill="#161b22"></rect><rect class="day" width="10" height="10" x="0" y="26" fill="#006d32"></rect><rect class="day" width="10" height="10" x="0" y="39" fill="#161b22"></rect><rect class="day" width="10" height="10" x="0" y="52" fill="#161b22"></rect><rect class="day" width="10" height="10" x="0" y="65" fill="#161b22"></rect><rect class="day" width="10" height="10" x="0" y="78" fill="#161b22"></rect></g>
    <g transform="translate(84,0)"><rect class="day" width="10" height="10" x="0" y="0" fill="#161b22"></rect><rect class="day" width="10" height="10" x="0" y="13" fill="#161b22"></rect><rect class="day" width="10" height="10" x="0" y="26" fill="#161b22"></rect><rect class="day" width="10" height="10" x="0" y="39" fill="#26a641"></rect><rect class="day" width="10" height="10" x="0" y="52" fill="#161b22"></rect><rect class="day" width="10" height="10" x="0" y="65" fill="#0e4429"></rect><rect class="day" width="10" height="10" x="0" y="78" fill="#161b22"></rect></g>
    <g transform="translate(98,0)"><rect class="day" width="10" height="10" x="0" y="0" fill="#161b22"></rect><rect class="day" width="10" height="10" x="0" y="13" fill="#39d353"></rect><rect class="day" width="10" height="10" x="0" y="26" fill="#161b22"></rect><rect class="day" width="10" height="10" x="0" y="39" fill="#161b22"></rect><rect class="day" width="10" height="10" x="0" y="52" fill="#161b22"></rect><rect class="day" width="10" height="10" x="0" y="65" fill="#161b22"></rect><rect class="day" width="10" height="10" x="0" y="78" fill="#161b22"></rect></g>
    <g transform="translate(112,0)"><rect class="day" width="10" height="10" x="0" y="0" fill="#161b22"></rect><rect class="day" width="10" height="10" x="0" y="13" fill="#161b22"></rect><rect class="day" width="10" height="10" x="0" y="26" fill="#161b22"></rect><rect class="day" width="10" height="10" x="0" y="39" fill="#161b22"></rect><rect class="day" width="10" height="10" x="0" y="52" fill="#161b22"></rect><rect class="day" width="10" height="10" x="0" y="65" fill="#006d32"></rect><rect class="day" width="10" height="10" x="0" y="78" fill="#161b22"></rect></g>

    <g transform="translate(126,0)"><rect class="day" width="10" height="10" x="0" y="0" fill="#161b22"></rect><rect class="day" width="10" height="10" x="0" y="13" fill="#161b22"></rect><rect class="day" width="10" height="10" x="0" y="26" fill="#0e4429"></rect><rect class="day" width="10" height="10" x="0" y="39" fill="#161b22"></rect><rect class="day" width="10" height="10" x="0" y="52" fill="#161b22"></rect><rect class="day" width="10" height="10" x="0" y="65" fill="#161b22"></rect><rect class="day" width="10" height="10" x="0" y="78" fill="#161b22"></rect></g>
    <g transform="translate(140,0)"><rect class="day" width="10" height="10" x="0" y="0" fill="#161b22"></rect><rect class="day" width="10" height="10" x="0" y="13" fill="#161b22"></rect><rect class="day" width="10" height="10" x="0" y="26" fill="#161b22"></rect><rect class="day" width="10" height="10" x="0" y="39" fill="#161b22"></rect><rect class="day" width="10" height="10" x="0" y="52" fill="#161b22"></rect><rect class="day" width="10" height="10" x="0" y="65" fill="#26a641"></rect><rect class="day" width="10" height="10" x="0" y="78" fill="#161b22"></rect></g>
    <g transform="translate(154,0)"><rect class="day" width="10" height="10" x="0" y="0" fill="#161b22"></rect><rect class="day" width="10" height="10" x="0" y="13" fill="#161b22"></rect><rect class="day" width="10" height="10" x="0" y="26" fill="#39d353"></rect><rect class="day" width="10" height="10" x="0" y="39" fill="#161b22"></rect><rect class="day" width="10" height="10" x="0" y="52" fill="#161b22"></rect><rect class="day" width="10" height="10" x="0" y="65" fill="#161b22"></rect><rect class="day" width="10" height="10" x="0" y="78" fill="#161b22"></rect></g>
    <g transform="translate(168,0)"><rect class="day" width="10" height="10" x="0" y="0" fill="#161b22"></rect><rect class="day" width="10" height="10" x="0" y="13" fill="#161b22"></rect><rect class="day" width="10" height="10" x="0" y="26" fill="#161b22"></rect><rect class="day" width="10" height="10" x="0" y="39" fill="#161b22"></rect><rect class="day" width="10" height="10" x="0" y="52" fill="#161b22"></rect><rect class="day" width="10" height="10" x="0" y="65" fill="#161b22"></rect><rect class="day" width="10" height="10" x="0" y="78" fill="#161b22"></rect></g>
    <g transform="translate(182,0)"><rect class="day" width="10" height="10" x="0" y="0" fill="#161b22"></rect><rect class="day" width="10" height="10" x="0" y="13" fill="#161b22"></rect><rect class="day" width="10" height="10" x="0" y="26" fill="#161b22"></rect><rect class="day" width="10" height="10" x="0" y="39" fill="#161b22"></rect><rect class="day" width="10" height="10" x="0" y="52" fill="#161b22"></rect><rect class="day" width="10" height="10" x="0" y="65" fill="#161b22"></rect><rect class="day" width="10" height="10" x="0" y="78" fill="#161b22"></rect></g>

    <g transform="translate(196,0)"><rect class="day" width="10" height="10" x="0" y="0" fill="#006d32"></rect><rect class="day" width="10" height="10" x="0" y="13" fill="#26a641"></rect><rect class="day" width="10" height="10" x="0" y="26" fill="#39d353"></rect><rect class="day" width="10" height="10" x="0" y="39" fill="#006d32"></rect><rect class="day" width="10" height="10" x="0" y="52" fill="#26a641"></rect><rect class="day" width="10" height="10" x="0" y="65" fill="#161b22"></rect><rect class="day" width="10" height="10" x="0" y="78" fill="#161b22"></rect></g>
    <g transform="translate(210,0)"><rect class="day" width="10" height="10" x="0" y="0" fill="#26a641"></rect><rect class="day" width="10" height="10" x="0" y="13" fill="#39d353"></rect><rect class="day" width="10" height="10" x="0" y="26" fill="#006d32"></rect><rect class="day" width="10" height="10" x="0" y="39" fill="#26a641"></rect><rect class="day" width="10" height="10" x="0" y="52" fill="#161b22"></rect><rect class="day" width="10" height="10" x="0" y="65" fill="#161b22"></rect><rect class="day" width="10" height="10" x="0" y="78" fill="#161b22"></rect></g>
    <g transform="translate(224,0)"><rect class="day" width="10" height="10" x="0" y="0" fill="#39d353"></rect><rect class="day" width="10" height="10" x="0" y="13" fill="#006d32"></rect><rect class="day" width="10" height="10" x="0" y="26" fill="#26a641"></rect><rect class="day" width="10" height="10" x="0" y="39" fill="#39d353"></rect><rect class="day" width="10" height="10" x="0" y="52" fill="#161b22"></rect><rect class="day" width="10" height="10" x="0" y="65" fill="#161b22"></rect><rect class="day" width="10" height="10" x="0" y="78" fill="#161b22"></rect></g>
    <g transform="translate(238,0)"><rect class="day" width="10" height="10" x="0" y="0" fill="#006d32"></rect><rect class="day" width="10" height="10" x="0" y="13" fill="#39d353"></rect><rect class="day" width="10" height="10" x="0" y="26" fill="#26a641"></rect><rect class="day" width="10" height="10" x="0" y="39" fill="#161b22"></rect><rect class="day" width="10" height="10" x="0" y="52" fill="#161b22"></rect><rect class="day" width="10" height="10" x="0" y="65" fill="#161b22"></rect><rect class="day" width="10" height="10" x="0" y="78" fill="#161b22"></rect></g>

    <g transform="translate(252,0)"><rect class="day" width="10" height="10" x="0" y="0" fill="#39d353"></rect><rect class="day" width="10" height="10" x="0" y="13" fill="#26a641"></rect><rect class="day" width="10" height="10" x="0" y="26" fill="#006d32"></rect><rect class="day" width="10" height="10" x="0" y="39" fill="#39d353"></rect><rect class="day" width="10" height="10" x="0" y="52" fill="#26a641"></rect><rect class="day" width="10" height="10" x="0" y="65" fill="#161b22"></rect><rect class="day" width="10" height="10" x="0" y="78" fill="#161b22"></rect></g>
    <g transform="translate(266,0)"><rect class="day" width="10" height="10" x="0" y="0" fill="#161b22"></rect><rect class="day" width="10" height="10" x="0" y="13" fill="#006d32"></rect><rect class="day" width="10" height="10" x="0" y="26" fill="#26a641"></rect><rect class="day" width="10" height="10" x="0" y="39" fill="#39d353"></rect><rect class="day" width="10" height="10" x="0" y="52" fill="#006d32"></rect><rect class="day" width="10" height="10" x="0" y="65" fill="#161b22"></rect><rect class="day" width="10" height="10" x="0" y="78" fill="#161b22"></rect></g>
    <g transform="translate(280,0)"><rect class="day" width="10" height="10" x="0" y="0" fill="#26a641"></rect><rect class="day" width="10" height="10" x="0" y="13" fill="#39d353"></rect><rect class="day" width="10" height="10" x="0" y="26" fill="#161b22"></rect><rect class="day" width="10" height="10" x="0" y="39" fill="#006d32"></rect><rect class="day" width="10" height="10" x="0" y="52" fill="#26a641"></rect><rect class="day" width="10" height="10" x="0" y="65" fill="#161b22"></rect><rect class="day" width="10" height="10" x="0" y="78" fill="#161b22"></rect></g>
    <g transform="translate(294,0)"><rect class="day" width="10" height="10" x="0" y="0" fill="#39d353"></rect><rect class="day" width="10" height="10" x="0" y="13" fill="#006d32"></rect><rect class="day" width="10" height="10" x="0" y="26" fill="#26a641"></rect><rect class="day" width="10" height="10" x="0" y="39" fill="#39d353"></rect><rect class="day" width="10" height="10" x="0" y="52" fill="#161b22"></rect><rect class="day" width="10" height="10" x="0" y="65" fill="#161b22"></rect><rect class="day" width="10" height="10" x="0" y="78" fill="#161b22"></rect></g>

    <g transform="translate(308,0)"><rect class="day" width="10" height="10" x="0" y="0" fill="#161b22"></rect><rect class="day" width="10" height="10" x="0" y="13" fill="#0e4429"></rect><rect class="day" width="10" height="10" x="0" y="26" fill="#006d32"></rect><rect class="day" width="10" height="10" x="0" y="39" fill="#161b22"></rect><rect class="day" width="10" height="10" x="0" y="52" fill="#161b22"></rect><rect class="day" width="10" height="10" x="0" y="65" fill="#161b22"></rect><rect class="day" width="10" height="10" x="0" y="78" fill="#161b22"></rect></g>
    <g transform="translate(322,0)"><rect class="day" width="10" height="10" x="0" y="0" fill="#161b22"></rect><rect class="day" width="10" height="10" x="0" y="13" fill="#161b22"></rect><rect class="day" width="10" height="10" x="0" y="26" fill="#161b22"></rect><rect class="day" width="10" height="10" x="0" y="39" fill="#26a641"></rect><rect class="day" width="10" height="10" x="0" y="52" fill="#161b22"></rect><rect class="day" width="10" height="10" x="0" y="65" fill="#161b22"></rect><rect class="day" width="10" height="10" x="0" y="78" fill="#161b22"></rect></g>
    <g transform="translate(336,0)"><rect class="day" width="10" height="10" x="0" y="0" fill="#161b22"></rect><rect class="day" width="10" height="10" x="0" y="13" fill="#006d32"></rect><rect class="day" width="10" height="10" x="0" y="26" fill="#161b22"></rect><rect class="day" width="10" height="10" x="0" y="39" fill="#161b22"></rect><rect class="day" width="10" height="10" x="0" y="52" fill="#161b22"></rect><rect class="day" width="10" height="10" x="0" y="65" fill="#161b22"></rect><rect class="day" width="10" height="10" x="0" y="78" fill="#161b22"></rect></g>
    <g transform="translate(350,0)"><rect class="day" width="10" height="10" x="0" y="0" fill="#161b22"></rect><rect class="day" width="10" height="10" x="0" y="13" fill="#161b22"></rect><rect class="day" width="10" height="10" x="0" y="26" fill="#161b22"></rect><rect class="day" width="10" height="10" x="0" y="39" fill="#39d353"></rect><rect class="day" width="10" height="10" x="0" y="52" fill="#161b22"></rect><rect class="day" width="10" height="10" x="0" y="65" fill="#161b22"></rect><rect class="day" width="10" height="10" x="0" y="78" fill="#161b22"></rect></g>
    <g transform="translate(364,0)"><rect class="day" width="10" height="10" x="0" y="0" fill="#161b22"></rect><rect class="day" width="10" height="10" x="0" y="13" fill="#161b22"></rect><rect class="day" width="10" height="10" x="0" y="26" fill="#161b22"></rect><rect class="day" width="10" height="10" x="0" y="39" fill="#161b22"></rect><rect class="day" width="10" height="10" x="0" y="52" fill="#161b22"></rect><rect class="day" width="10" height="10" x="0" y="65" fill="#161b22"></rect><rect class="day" width="10" height="10" x="0" y="78" fill="#161b22"></rect></g>

    <g transform="translate(378,0)"><rect class="day" width="10" height="10" x="0" y="0" fill="#26a641"></rect><rect class="day" width="10" height="10" x="0" y="13" fill="#006d32"></rect><rect class="day" width="10" height="10" x="0" y="26" fill="#39d353"></rect><rect class="day" width="10" height="10" x="0" y="39" fill="#26a641"></rect><rect class="day" width="10" height="10" x="0" y="52" fill="#161b22"></rect><rect class="day" width="10" height="10" x="0" y="65" fill="#161b22"></rect><rect class="day" width="10" height="10" x="0" y="78" fill="#161b22"></rect></g>
    <g transform="translate(392,0)"><rect class="day" width="10" height="10" x="0" y="0" fill="#39d353"></rect><rect class="day" width="10" height="10" x="0" y="13" fill="#26a641"></rect><rect class="day" width="10" height="10" x="0" y="26" fill="#006d32"></rect><rect class="day" width="10" height="10" x="0" y="39" fill="#39d353"></rect><rect class="day" width="10" height="10" x="0" y="52" fill="#161b22"></rect><rect class="day" width="10" height="10" x="0" y="65" fill="#161b22"></rect><rect class="day" width="10" height="10" x="0" y="78" fill="#161b22"></rect></g>
    <g transform="translate(406,0)"><rect class="day" width="10" height="10" x="0" y="0" fill="#006d32"></rect><rect class="day" width="10" height="10" x="0" y="13" fill="#39d353"></rect><rect class="day" width="10" height="10" x="0" y="26" fill="#26a641"></rect><rect class="day" width="10" height="10" x="0" y="39" fill="#006d32"></rect><rect class="day" width="10" height="10" x="0" y="52" fill="#161b22"></rect><rect class="day" width="10" height="10" x="0" y="65" fill="#161b22"></rect><rect class="day" width="10" height="10" x="0" y="78" fill="#161b22"></rect></g>
    <g transform="translate(420,0)"><rect class="day" width="10" height="10" x="0" y="0" fill="#26a641"></rect><rect class="day" width="10" height="10" x="0" y="13" fill="#006d32"></rect><rect class="day" width="10" height="10" x="0" y="26" fill="#39d353"></rect><rect class="day" width="10" height="10" x="0" y="39" fill="#26a641"></rect><rect class="day" width="10" height="10" x="0" y="52" fill="#161b22"></rect><rect class="day" width="10" height="10" x="0" y="65" fill="#161b22"></rect><rect class="day" width="10" height="10" x="0" y="78" fill="#161b22"></rect></g>

    <g transform="translate(434,0)"><rect class="day" width="10" height="10" x="0" y="0" fill="#161b22"></rect><rect class="day" width="10" height="10" x="0" y="13" fill="#0e4429"></rect><rect class="day" width="10" height="10" x="0" y="26" fill="#161b22"></rect><rect class="day" width="10" height="10" x="0" y="39" fill="#161b22"></rect><rect class="day" width="10" height="10" x="0" y="52" fill="#161b22"></rect><rect class="day" width="10" height="10" x="0" y="65" fill="#161b22"></rect><rect class="day" width="10" height="10" x="0" y="78" fill="#161b22"></rect></g>
    <g transform="translate(448,0)"><rect class="day" width="10" height="10" x="0" y="0" fill="#161b22"></rect><rect class="day" width="10" height="10" x="0" y="13" fill="#26a641"></rect><rect class="day" width="10" height="10" x="0" y="26" fill="#161b22"></rect><rect class="day" width="10" height="10" x="0" y="39" fill="#006d32"></rect><rect class="day" width="10" height="10" x="0" y="52" fill="#161b22"></rect><rect class="day" width="10" height="10" x="0" y="65" fill="#161b22"></rect><rect class="day" width="10" height="10" x="0" y="78" fill="#161b22"></rect></g>
    <g transform="translate(462,0)"><rect class="day" width="10" height="10" x="0" y="0" fill="#161b22"></rect><rect class="day" width="10" height="10" x="0" y="13" fill="#161b22"></rect><rect class="day" width="10" height="10" x="0" y="26" fill="#161b22"></rect><rect class="day" width="10" height="10" x="0" y="39" fill="#0e4429"></rect><rect class="day" width="10" height="10" x="0" y="52" fill="#161b22"></rect><rect class="day" width="10" height="10" x="0" y="65" fill="#161b22"></rect><rect class="day" width="10" height="10" x="0" y="78" fill="#161b22"></rect></g>
    <g transform="translate(476,0)"><rect class="day" width="10" height="10" x="0" y="0" fill="#161b22"></rect><rect class="day" width="10" height="10" x="0" y="13" fill="#161b22"></rect><rect class="day" width="10" height="10" x="0" y="26" fill="#161b22"></rect><rect class="day" width="10" height="10" x="0" y="39" fill="#161b22"></rect><rect class="day" width="10" height="10" x="0" y="52" fill="#161b22"></rect><rect class="day" width="10" height="10" x="0" y="65" fill="#161b22"></rect><rect class="day" width="10" height="10" x="0" y="78" fill="#161b22"></rect></g>
    <g transform="translate(490,0)"><rect class="day" width="10" height="10" x="0" y="0" fill="#161b22"></rect><rect class="day" width="10" height="10" x="0" y="13" fill="#161b22"></rect><rect class="day" width="10" height="10" x="0" y="26" fill="#161b22"></rect><rect class="day" width="10" height="10" x="0" y="39" fill="#161b22"></rect><rect class="day" width="10" height="10" x="0" y="52" fill="#161b22"></rect><rect class="day" width="10" height="10" x="0" y="65" fill="#161b22"></rect><rect class="day" width="10" height="10" x="0" y="78" fill="#161b22"></rect></g>

    <g transform="translate(504,0)"><rect class="day" width="10" height="10" x="0" y="0" fill="#161b22"></rect><rect class="day" width="10" height="10" x="0" y="13" fill="#0e4429"></rect><rect class="day" width="10" height="10" x="0" y="26" fill="#161b22"></rect><rect class="day" width="10" height="10" x="0" y="39" fill="#161b22"></rect><rect class="day" width="10" height="10" x="0" y="52" fill="#161b22"></rect><rect class="day" width="10" height="10" x="0" y="65" fill="#161b22"></rect><rect class="day" width="10" height="10" x="0" y="78" fill="#161b22"></rect></g>
    <g transform="translate(518,0)"><rect class="day" width="10" height="10" x="0" y="0" fill="#161b22"></rect><rect class="day" width="10" height="10" x="0" y="13" fill="#26a641"></rect><rect class="day" width="10" height="10" x="0" y="26" fill="#161b22"></rect><rect class="day" width="10" height="10" x="0" y="39" fill="#161b22"></rect><rect class="day" width="10" height="10" x="0" y="52" fill="#006d32"></rect><rect class="day" width="10" height="10" x="0" y="65" fill="#161b22"></rect><rect class="day" width="10" height="10" x="0" y="78" fill="#161b22"></rect></g>
    <g transform="translate(532,0)"><rect class="day" width="10" height="10" x="0" y="0" fill="#161b22"></rect><rect class="day" width="10" height="10" x="0" y="13" fill="#161b22"></rect><rect class="day" width="10" height="10" x="0" y="26" fill="#161b22"></rect><rect class="day" width="10" height="10" x="0" y="39" fill="#161b22"></rect><rect class="day" width="10" height="10" x="0" y="52" fill="#0e4429"></rect><rect class="day" width="10" height="10" x="0" y="65" fill="#161b22"></rect><rect class="day" width="10" height="10" x="0" y="78" fill="#161b22"></rect></g>
    <g transform="translate(546,0)"><rect class="day" width="10" height="10" x="0" y="0" fill="#161b22"></rect><rect class="day" width="10" height="10" x="0" y="13" fill="#161b22"></rect><rect class="day" width="10" height="10" x="0" y="26" fill="#161b22"></rect><rect class="day" width="10" height="10" x="0" y="39" fill="#161b22"></rect><rect class="day" width="10" height="10" x="0" y="52" fill="#161b22"></rect><rect class="day" width="10" height="10" x="0" y="65" fill="#161b22"></rect><rect class="day" width="10" height="10" x="0" y="78" fill="#161b22"></rect></g>

    <g transform="translate(560,0)"><rect class="day" width="10" height="10" x="0" y="0" fill="#39d353"></rect><rect class="day" width="10" height="10" x="0" y="13" fill="#26a641"></rect><rect class="day" width="10" height="10" x="0" y="26" fill="#006d32"></rect><rect class="day" width="10" height="10" x="0" y="39" fill="#39d353"></rect><rect class="day" width="10" height="10" x="0" y="52" fill="#161b22"></rect><rect class="day" width="10" height="10" x="0" y="65" fill="#161b22"></rect><rect class="day" width="10" height="10" x="0" y="78" fill="#161b22"></rect></g>
    <g transform="translate(574,0)"><rect class="day" width="10" height="10" x="0" y="0" fill="#161b22"></rect><rect class="day" width="10" height="10" x="0" y="13" fill="#006d32"></rect><rect class="day" width="10" height="10" x="0" y="26" fill="#26a641"></rect><rect class="day" width="10" height="10" x="0" y="39" fill="#39d353"></rect><rect class="day" width="10" height="10" x="0" y="52" fill="#006d32"></rect><rect class="day" width="10" height="10" x="0" y="65" fill="#161b22"></rect><rect class="day" width="10" height="10" x="0" y="78" fill="#161b22"></rect></g>
    <g transform="translate(588,0)"><rect class="day" width="10" height="10" x="0" y="0" fill="#26a641"></rect><rect class="day" width="10" height="10" x="0" y="13" fill="#39d353"></rect><rect class="day" width="10" height="10" x="0" y="26" fill="#161b22"></rect><rect class="day" width="10" height="10" x="0" y="39" fill="#006d32"></rect><rect class="day" width="10" height="10" x="0" y="52" fill="#26a641"></rect><rect class="day" width="10" height="10" x="0" y="65" fill="#161b22"></rect><rect class="day" width="10" height="10" x="0" y="78" fill="#161b22"></rect></g>
    <g transform="translate(602,0)"><rect class="day" width="10" height="10" x="0" y="0" fill="#39d353"></rect><rect class="day" width="10" height="10" x="0" y="13" fill="#006d32"></rect><rect class="day" width="10" height="10" x="0" y="26" fill="#26a641"></rect><rect class="day" width="10" height="10" x="0" y="39" fill="#39d353"></rect><rect class="day" width="10" height="10" x="0" y="52" fill="#161b22"></rect><rect class="day" width="10" height="10" x="0" y="65" fill="#161b22"></rect><rect class="day" width="10" height="10" x="0" y="78" fill="#161b22"></rect></g>

    <g transform="translate(616,0)"><rect class="day" width="10" height="10" x="0" y="0" fill="#161b22"></rect><rect class="day" width="10" height="10" x="0" y="13" fill="#161b22"></rect><rect class="day" width="10" height="10" x="0" y="26" fill="#161b22"></rect><rect class="day" width="10" height="10" x="0" y="39" fill="#0e4429"></rect><rect class="day" width="10" height="10" x="0" y="52" fill="#161b22"></rect><rect class="day" width="10" height="10" x="0" y="65" fill="#161b22"></rect><rect class="day" width="10" height="10" x="0" y="78" fill="#161b22"></rect></g>
    <g transform="translate(630,0)"><rect class="day" width="10" height="10" x="0" y="0" fill="#161b22"></rect><rect class="day" width="10" height="10" x="0" y="13" fill="#26a641"></rect><rect class="day" width="10" height="10" x="0" y="26" fill="#161b22"></rect><rect class="day" width="10" height="10" x="0" y="39" fill="#161b22"></rect><rect class="day" width="10" height="10" x="0" y="52" fill="#006d32"></rect><rect class="day" width="10" height="10" x="0" y="65" fill="#161b22"></rect><rect class="day" width="10" height="10" x="0" y="78" fill="#161b22"></rect></g>
    <g transform="translate(644,0)"><rect class="day" width="10" height="10" x="0" y="0" fill="#161b22"></rect><rect class="day" width="10" height="10" x="0" y="13" fill="#161b22"></rect><rect class="day" width="10" height="10" x="0" y="26" fill="#161b22"></rect><rect class="day" width="10" height="10" x="0" y="39" fill="#161b22"></rect><rect class="day" width="10" height="10" x="0" y="52" fill="#0e4429"></rect><rect class="day" width="10" height="10" x="0" y="65" fill="#161b22"></rect><rect class="day" width="10" height="10" x="0" y="78" fill="#161b22"></rect></g>
    <g transform="translate(658,0)"><rect class="day" width="10" height="10" x="0" y="0" fill="#161b22"></rect><rect class="day" width="10" height="10" x="0" y="13" fill="#161b22"></rect><rect class="day" width="10" height="10" x="0" y="26" fill="#161b22"></rect><rect class="day" width="10" height="10" x="0" y="39" fill="#161b22"></rect><rect class="day" width="10" height="10" x="0" y="52" fill="#161b22"></rect><rect class="day" width="10" height="10" x="0" y="65" fill="#161b22"></rect><rect class="day" width="10" height="10" x="0" y="78" fill="#161b22"></rect></g>

    <g transform="translate(672,0)"><rect class="day" width="10" height="10" x="0" y="0" fill="#26a641"></rect><rect class="day" width="10" height="10" x="0" y="13" fill="#006d32"></rect><rect class="day" width="10" height="10" x="0" y="26" fill="#39d353"></rect><rect class="day" width="10" height="10" x="0" y="39" fill="#26a641"></rect><rect class="day" width="10" height="10" x="0" y="52" fill="#161b22"></rect><rect class="day" width="10" height="10" x="0" y="65" fill="#161b22"></rect><rect class="day" width="10" height="10" x="0" y="78" fill="#161b22"></rect></g>
    <g transform="translate(686,0)"><rect class="day" width="10" height="10" x="0" y="0" fill="#39d353"></rect><rect class="day" width="10" height="10" x="0" y="13" fill="#26a641"></rect><rect class="day" width="10" height="10" x="0" y="26" fill="#006d32"></rect><rect class="day" width="10" height="10" x="0" y="39" fill="#39d353"></rect><rect class="day" width="10" height="10" x="0" y="52" fill="#161b22"></rect><rect class="day" width="10" height="10" x="0" y="65" fill="#161b22"></rect><rect class="day" width="10" height="10" x="0" y="78" fill="#161b22"></rect></g>
    <g transform="translate(700,0)"><rect class="day" width="10" height="10" x="0" y="0" fill="#006d32"></rect><rect class="day" width="10" height="10" x="0" y="13" fill="#39d353"></rect><rect class="day" width="10" height="10" x="0" y="26" fill="#26a641"></rect><rect class="day" width="10" height="10" x="0" y="39" fill="#006d32"></rect><rect class="day" width="10" height="10" x="0" y="52" fill="#161b22"></rect><rect class="day" width="10" height="10" x="0" y="65" fill="#161b22"></rect><rect class="day" width="10" height="10" x="0" y="78" fill="#161b22"></rect></g>
    <g transform="translate(714,0)"><rect class="day" width="10" height="10" x="0" y="0" fill="#26a641"></rect><rect class="day" width="10" height="10" x="0" y="13" fill="#006d32"></rect><rect class="day" width="10" height="10" x="0" y="26" fill="#39d353"></rect><rect class="day" width="10" height="10" x="0" y="39" fill="#26a641"></rect><rect class="day" width="10" height="10" x="0" y="52" fill="#161b22"></rect><rect class="day" width="10" height="10" x="0" y="65" fill="#161b22"></rect><rect class="day" width="10" height="10" x="0" y="78" fill="#161b22"></rect></g>
    <g transform="translate(728,0)"><rect class="day" width="10" height="10" x="0" y="0" fill="#161b22"></rect><rect class="day" width="10" height="10" x="0" y="13" fill="#161b22"></rect><rect class="day" width="10" height="10" x="0" y="26" fill="#26a641"></rect><rect class="day" width="10" height="10" x="0" y="39" fill="#39d353"></rect><rect class="day" width="10" height="10" x="0" y="52" fill="#161b22"></rect><rect class="day" width="10" height="10" x="0" y="65" fill="#161b22"></rect><rect class="day" width="10" height="10" x="0" y="78" fill="#161b22"></rect></g>

    <text x="646" y="110" class="month">Less</text>
    <rect width="10" height="10" x="676" y="102" fill="#161b22" rx="2" ry="2"></rect>
    <rect width="10" height="10" x="690" y="102" fill="#0e4429" rx="2" ry="2"></rect>
    <rect width="10" height="10" x="704" y="102" fill="#006d32" rx="2" ry="2"></rect>
    <rect width="10" height="10" x="718" y="102" fill="#26a641" rx="2" ry="2"></rect>
    <rect width="10" height="10" x="732" y="102" fill="#39d353" rx="2" ry="2"></rect>
    <text x="750" y="110" class="month">More</text>
  </g>
</svg>
